<svg xmlns="http://www.w3.org/2000/svg" xmlns:xlink="http://www.w3.org/1999/xlink" width="500" zoomAndPan="magnify" viewBox="0 0 375 374.999991" height="500" preserveAspectRatio="xMidYMid meet" version="1.0"><defs><g/></defs><g fill="#fffcf7" fill-opacity="1"><g transform="translate(142.194857, 57.647224)"><g><path d="M 13.40625 0.59375 C 12.09375 0.59375 10.929688 0.273438 9.921875 -0.359375 C 8.910156 0.273438 7.972656 0.59375 7.109375 0.59375 C 6.242188 0.59375 5.53125 0.519531 4.96875 0.375 C 4.414062 0.226562 3.929688 0.0234375 3.515625 -0.234375 C 2.660156 -0.753906 2.234375 -1.398438 2.234375 -2.171875 C 2.234375 -2.566406 2.34375 -2.914062 2.5625 -3.21875 C 3 -2.882812 3.554688 -2.71875 4.234375 -2.71875 C 6.003906 -2.71875 7.222656 -3.472656 7.890625 -4.984375 L 7.890625 -19.546875 C 7.890625 -20.441406 7.703125 -21.128906 7.328125 -21.609375 C 6.734375 -22.378906 5.710938 -23.113281 4.265625 -23.8125 C 5.597656 -24.425781 6.472656 -24.960938 6.890625 -25.421875 C 7.554688 -26.191406 7.890625 -27.054688 7.890625 -28.015625 L 7.890625 -40.59375 C 7.222656 -42.113281 6.003906 -42.875 4.234375 -42.875 C 3.554688 -42.875 3 -42.707031 2.5625 -42.375 C 2.34375 -42.675781 2.234375 -43.019531 2.234375 -43.40625 C 2.234375 -43.789062 2.347656 -44.148438 2.578125 -44.484375 C 2.804688 -44.828125 3.117188 -45.117188 3.515625 -45.359375 C 4.429688 -45.910156 5.476562 -46.1875 6.65625 -46.1875 C 7.84375 -46.1875 8.929688 -45.859375 9.921875 -45.203125 C 10.953125 -45.859375 12.101562 -46.1875 13.375 -46.1875 C 14.769531 -46.1875 15.984375 -45.820312 17.015625 -45.09375 C 19.222656 -46.019531 21.414062 -46.484375 23.59375 -46.484375 C 25.78125 -46.484375 27.773438 -46.269531 29.578125 -45.84375 C 31.378906 -45.414062 33.003906 -44.816406 34.453125 -44.046875 C 37.609375 -42.378906 39.570312 -40.210938 40.34375 -37.546875 C 40.78125 -36.078125 41.726562 -34.984375 43.1875 -34.265625 C 41.570312 -33.160156 40.578125 -31.890625 40.203125 -30.453125 C 39.367188 -27.316406 37.679688 -25.269531 35.140625 -24.3125 C 38.867188 -23.28125 41.300781 -20.835938 42.4375 -16.984375 C 42.832031 -15.617188 43.773438 -14.5 45.265625 -13.625 C 43.734375 -12.769531 42.707031 -11.476562 42.1875 -9.75 C 41.675781 -8.019531 40.769531 -6.460938 39.46875 -5.078125 C 38.164062 -3.703125 36.648438 -2.566406 34.921875 -1.671875 C 31.585938 0.0351562 27.820312 0.890625 23.625 0.890625 C 21.125 0.890625 18.890625 0.441406 16.921875 -0.453125 C 15.890625 0.242188 14.71875 0.59375 13.40625 0.59375 Z M 24.4375 -25.75 C 26.1875 -25.75 27.425781 -26.164062 28.15625 -27 C 28.9375 -27.851562 29.328125 -29.320312 29.328125 -31.40625 L 29.328125 -38.296875 C 29.328125 -39.503906 28.691406 -40.523438 27.421875 -41.359375 C 26.304688 -42.097656 25.273438 -42.46875 24.328125 -42.46875 C 23.390625 -42.46875 22.613281 -42.351562 22 -42.125 C 21.394531 -41.894531 20.859375 -41.582031 20.390625 -41.1875 C 19.367188 -40.351562 18.859375 -39.347656 18.859375 -38.171875 L 18.859375 -25.75 Z M 31.015625 -41.78125 C 31.691406 -40.269531 32.03125 -38.066406 32.03125 -35.171875 C 32.03125 -30.890625 31.753906 -28.113281 31.203125 -26.84375 C 32.035156 -27.007812 32.738281 -27.816406 33.3125 -29.265625 C 33.53125 -29.796875 33.691406 -30.359375 33.796875 -30.953125 C 33.910156 -31.554688 34.003906 -32.019531 34.078125 -32.34375 C 34.148438 -32.675781 34.253906 -32.960938 34.390625 -33.203125 C 34.691406 -33.691406 35.226562 -34.066406 36 -34.328125 C 35.207031 -34.585938 34.710938 -34.867188 34.515625 -35.171875 C 34.253906 -35.503906 34.039062 -36.117188 33.875 -37.015625 C 33.71875 -37.910156 33.53125 -38.640625 33.3125 -39.203125 C 33.09375 -39.765625 32.859375 -40.226562 32.609375 -40.59375 C 32.109375 -41.300781 31.578125 -41.695312 31.015625 -41.78125 Z M 10.765625 -7.890625 C 11.753906 -8.273438 12.296875 -9.578125 12.390625 -11.796875 C 12.515625 -14.023438 12.578125 -17.101562 12.578125 -21.03125 C 12.578125 -24.96875 12.570312 -27.585938 12.5625 -28.890625 C 12.550781 -30.191406 12.535156 -31.238281 12.515625 -32.03125 C 12.453125 -34.375 12.226562 -35.789062 11.84375 -36.28125 C 11.457031 -36.769531 11.097656 -37.09375 10.765625 -37.25 C 10.765625 -30.332031 10.644531 -26.398438 10.40625 -25.453125 C 10.125 -24.648438 9.445312 -24.082031 8.375 -23.75 C 9.5625 -23.332031 10.238281 -22.828125 10.40625 -22.234375 C 10.644531 -21.273438 10.765625 -17.785156 10.765625 -11.765625 Z M 18.859375 -7.78125 C 18.859375 -6.382812 19.382812 -5.238281 20.4375 -4.34375 C 21.457031 -3.507812 22.671875 -3.09375 24.078125 -3.09375 C 25.453125 -3.09375 26.601562 -3.394531 27.53125 -4 C 29.320312 -5.164062 30.21875 -6.503906 30.21875 -8.015625 L 30.21875 -16.75 C 30.21875 -18.550781 29.628906 -19.910156 28.453125 -20.828125 C 27.460938 -21.609375 26.164062 -22 24.5625 -22 L 18.859375 -22 Z M 32.21875 -21.0625 C 32.6875 -19.988281 32.921875 -17.507812 32.921875 -13.625 C 32.921875 -8.695312 32.742188 -5.804688 32.390625 -4.953125 C 32.804688 -5.023438 33.234375 -5.53125 33.671875 -6.46875 C 34.109375 -7.40625 34.414062 -8.367188 34.59375 -9.359375 C 34.769531 -10.347656 34.894531 -11.019531 34.96875 -11.375 C 35.039062 -11.738281 35.144531 -12.0625 35.28125 -12.34375 C 35.601562 -12.9375 36.140625 -13.363281 36.890625 -13.625 C 35.703125 -14 35.003906 -14.75 34.796875 -15.875 C 34.585938 -17.007812 34.382812 -17.882812 34.1875 -18.5 C 33.988281 -19.125 33.78125 -19.613281 33.5625 -19.96875 C 33.175781 -20.601562 32.726562 -20.96875 32.21875 -21.0625 Z M 32.21875 -21.0625 "/></g></g></g><g fill="#fffcf7" fill-opacity="1"><g transform="translate(186.902311, 57.647224)"><g><path d="M 16.484375 -0.328125 C 15.484375 0.285156 14.359375 0.59375 13.109375 0.59375 C 11.859375 0.59375 10.785156 0.273438 9.890625 -0.359375 C 8.878906 0.273438 7.945312 0.59375 7.09375 0.59375 C 6.238281 0.59375 5.53125 0.519531 4.96875 0.375 C 4.414062 0.226562 3.929688 0.0234375 3.515625 -0.234375 C 2.660156 -0.753906 2.234375 -1.398438 2.234375 -2.171875 C 2.234375 -2.566406 2.34375 -2.914062 2.5625 -3.21875 C 3 -2.882812 3.554688 -2.71875 4.234375 -2.71875 C 6.003906 -2.71875 7.222656 -3.472656 7.890625 -4.984375 L 7.890625 -19.546875 C 7.890625 -21.097656 7.117188 -22.269531 5.578125 -23.0625 L 4.265625 -23.75 C 6.023438 -24.5625 7.125 -25.445312 7.5625 -26.40625 C 7.78125 -26.84375 7.890625 -27.378906 7.890625 -28.015625 L 7.890625 -40.59375 C 7.222656 -42.113281 6.003906 -42.875 4.234375 -42.875 C 3.554688 -42.875 3 -42.707031 2.5625 -42.375 C 2.34375 -42.675781 2.234375 -43.019531 2.234375 -43.40625 C 2.234375 -43.789062 2.347656 -44.148438 2.578125 -44.484375 C 2.804688 -44.828125 3.117188 -45.117188 3.515625 -45.359375 C 4.429688 -45.910156 5.46875 -46.1875 6.625 -46.1875 C 7.789062 -46.1875 8.878906 -45.867188 9.890625 -45.234375 C 10.785156 -45.867188 11.863281 -46.1875 13.125 -46.1875 C 14.382812 -46.1875 15.503906 -45.867188 16.484375 -45.234375 C 17.410156 -45.867188 18.453125 -46.1875 19.609375 -46.1875 C 21.296875 -46.1875 22.507812 -45.617188 23.25 -44.484375 C 23.46875 -44.128906 23.578125 -43.753906 23.578125 -43.359375 C 23.578125 -42.960938 23.457031 -42.632812 23.21875 -42.375 C 22.78125 -42.707031 22.234375 -42.875 21.578125 -42.875 C 20.046875 -42.875 19.019531 -42.128906 18.5 -40.640625 L 18.5 -25.328125 L 32.21875 -41.578125 C 32.21875 -42.460938 31.71875 -42.90625 30.71875 -42.90625 C 29.726562 -42.90625 28.90625 -42.71875 28.25 -42.34375 C 28.03125 -42.695312 27.921875 -43.15625 27.921875 -43.71875 C 27.921875 -44.289062 28.21875 -44.84375 28.8125 -45.375 C 29.414062 -45.914062 30.25 -46.1875 31.3125 -46.1875 C 32.375 -46.1875 33.25 -45.929688 33.9375 -45.421875 C 34.632812 -45.929688 35.410156 -46.1875 36.265625 -46.1875 C 37.117188 -46.1875 37.882812 -45.921875 38.5625 -45.390625 C 39.238281 -45.921875 39.921875 -46.1875 40.609375 -46.1875 C 41.304688 -46.1875 41.859375 -46.117188 42.265625 -45.984375 C 42.671875 -45.859375 43.023438 -45.6875 43.328125 -45.46875 C 44.023438 -44.957031 44.375 -44.382812 44.375 -43.75 C 44.375 -43.113281 44.273438 -42.644531 44.078125 -42.34375 C 43.660156 -42.488281 43.179688 -42.5625 42.640625 -42.5625 C 41.546875 -42.5625 40.742188 -42.453125 40.234375 -42.234375 C 39.734375 -42.015625 39.25 -41.765625 38.78125 -41.484375 C 38.3125 -41.203125 37.84375 -40.882812 37.375 -40.53125 L 36 -39.515625 C 35.539062 -39.160156 35.171875 -38.832031 34.890625 -38.53125 L 28.078125 -30.515625 L 40.625 -7.6875 C 42.164062 -4.90625 43.40625 -3.316406 44.34375 -2.921875 C 44.675781 -2.785156 45.109375 -2.71875 45.640625 -2.71875 C 46.179688 -2.71875 46.671875 -2.882812 47.109375 -3.21875 C 47.328125 -2.914062 47.4375 -2.570312 47.4375 -2.1875 C 47.4375 -1.800781 47.328125 -1.4375 47.109375 -1.09375 C 46.890625 -0.757812 46.601562 -0.472656 46.25 -0.234375 C 45.4375 0.316406 44.40625 0.59375 43.15625 0.59375 C 41.90625 0.59375 40.769531 0.273438 39.75 -0.359375 C 38.738281 0.273438 37.585938 0.59375 36.296875 0.59375 C 35.003906 0.59375 33.851562 0.273438 32.84375 -0.359375 C 31.820312 0.273438 30.710938 0.59375 29.515625 0.59375 C 28.316406 0.59375 27.382812 0.320312 26.71875 -0.21875 C 26.050781 -0.769531 25.71875 -1.421875 25.71875 -2.171875 C 25.71875 -2.566406 25.828125 -2.914062 26.046875 -3.21875 C 26.484375 -2.882812 27.039062 -2.71875 27.71875 -2.71875 C 28.96875 -2.71875 29.890625 -3.203125 30.484375 -4.171875 L 21.28125 -22.59375 L 18.5 -19.34375 L 18.5 -4.953125 C 19.019531 -3.460938 20.046875 -2.71875 21.578125 -2.71875 C 22.234375 -2.71875 22.78125 -2.882812 23.21875 -3.21875 C 23.457031 -2.957031 23.578125 -2.628906 23.578125 -2.234375 C 23.578125 -1.835938 23.460938 -1.457031 23.234375 -1.09375 C 23.003906 -0.738281 22.707031 -0.429688 22.34375 -0.171875 C 21.59375 0.335938 20.679688 0.59375 19.609375 0.59375 C 18.472656 0.59375 17.429688 0.285156 16.484375 -0.328125 Z M 10.703125 -7.890625 C 11.691406 -8.273438 12.238281 -9.578125 12.34375 -11.796875 C 12.457031 -14.023438 12.515625 -17.101562 12.515625 -21.03125 C 12.515625 -24.96875 12.507812 -27.585938 12.5 -28.890625 C 12.488281 -30.191406 12.472656 -31.238281 12.453125 -32.03125 C 12.390625 -34.375 12.164062 -35.789062 11.78125 -36.28125 C 11.394531 -36.769531 11.035156 -37.09375 10.703125 -37.25 C 10.703125 -30.332031 10.582031 -26.398438 10.34375 -25.453125 C 10.0625 -24.648438 9.382812 -24.082031 8.3125 -23.75 C 9.507812 -23.332031 10.1875 -22.828125 10.34375 -22.234375 C 10.582031 -21.273438 10.703125 -17.785156 10.703125 -11.765625 Z M 31.703125 -7.890625 C 31.941406 -8.210938 32.0625 -8.679688 32.0625 -9.296875 C 32.0625 -10.648438 31.597656 -12.191406 30.671875 -13.921875 L 24.859375 -25.84375 L 23.515625 -24.4375 Z M 31.703125 -7.890625 "/></g></g></g><g fill="#fffcf7" fill-opacity="1"><g transform="translate(27.506699, 101.019149)"><g><path d="M 6.640625 0.296875 C 5.992188 0.296875 5.421875 0.140625 4.921875 -0.171875 C 4.421875 0.140625 3.953125 0.296875 3.515625 0.296875 C 3.085938 0.296875 2.734375 0.257812 2.453125 0.1875 C 2.179688 0.113281 1.945312 0.0078125 1.75 -0.125 C 1.320312 -0.375 1.109375 -0.691406 1.109375 -1.078125 C 1.109375 -1.273438 1.160156 -1.445312 1.265625 -1.59375 C 1.484375 -1.425781 1.757812 -1.34375 2.09375 -1.34375 C 2.96875 -1.34375 3.578125 -1.71875 3.921875 -2.46875 L 3.921875 -9.6875 C 3.921875 -10.132812 3.828125 -10.472656 3.640625 -10.703125 C 3.335938 -11.085938 2.828125 -11.453125 2.109375 -11.796875 C 2.773438 -12.109375 3.207031 -12.375 3.40625 -12.59375 C 3.75 -12.976562 3.921875 -13.410156 3.921875 -13.890625 L 3.921875 -20.125 C 3.578125 -20.875 2.96875 -21.25 2.09375 -21.25 C 1.757812 -21.25 1.484375 -21.164062 1.265625 -21 C 1.160156 -21.144531 1.109375 -21.3125 1.109375 -21.5 C 1.109375 -21.695312 1.164062 -21.878906 1.28125 -22.046875 C 1.394531 -22.210938 1.550781 -22.359375 1.75 -22.484375 C 2.195312 -22.753906 2.710938 -22.890625 3.296875 -22.890625 C 3.890625 -22.890625 4.429688 -22.726562 4.921875 -22.40625 C 5.429688 -22.726562 6 -22.890625 6.625 -22.890625 C 7.320312 -22.890625 7.925781 -22.707031 8.4375 -22.34375 C 9.53125 -22.8125 10.617188 -23.046875 11.703125 -23.046875 C 12.785156 -23.046875 13.769531 -22.9375 14.65625 -22.71875 C 15.550781 -22.507812 16.359375 -22.210938 17.078125 -21.828125 C 18.640625 -21.003906 19.613281 -19.929688 20 -18.609375 C 20.21875 -17.878906 20.6875 -17.335938 21.40625 -16.984375 C 20.601562 -16.429688 20.109375 -15.800781 19.921875 -15.09375 C 19.515625 -13.539062 18.679688 -12.523438 17.421875 -12.046875 C 19.265625 -11.535156 20.46875 -10.328125 21.03125 -8.421875 C 21.226562 -7.742188 21.695312 -7.1875 22.4375 -6.75 C 21.675781 -6.320312 21.164062 -5.679688 20.90625 -4.828125 C 20.65625 -3.972656 20.207031 -3.203125 19.5625 -2.515625 C 18.914062 -1.828125 18.164062 -1.265625 17.3125 -0.828125 C 15.65625 0.015625 13.789062 0.4375 11.71875 0.4375 C 10.476562 0.4375 9.367188 0.21875 8.390625 -0.21875 C 7.878906 0.125 7.296875 0.296875 6.640625 0.296875 Z M 12.109375 -12.765625 C 12.972656 -12.765625 13.585938 -12.96875 13.953125 -13.375 C 14.335938 -13.800781 14.53125 -14.53125 14.53125 -15.5625 L 14.53125 -18.984375 C 14.53125 -19.578125 14.21875 -20.082031 13.59375 -20.5 C 13.039062 -20.863281 12.53125 -21.046875 12.0625 -21.046875 C 11.59375 -21.046875 11.207031 -20.988281 10.90625 -20.875 C 10.601562 -20.757812 10.335938 -20.601562 10.109375 -20.40625 C 9.597656 -20 9.34375 -19.503906 9.34375 -18.921875 L 9.34375 -12.765625 Z M 15.375 -20.703125 C 15.707031 -19.953125 15.875 -18.859375 15.875 -17.421875 C 15.875 -15.304688 15.738281 -13.9375 15.46875 -13.3125 C 15.875 -13.382812 16.222656 -13.78125 16.515625 -14.5 C 16.617188 -14.769531 16.695312 -15.050781 16.75 -15.34375 C 16.8125 -15.644531 16.859375 -15.875 16.890625 -16.03125 C 16.921875 -16.195312 16.972656 -16.335938 17.046875 -16.453125 C 17.191406 -16.703125 17.457031 -16.890625 17.84375 -17.015625 C 17.445312 -17.140625 17.203125 -17.273438 17.109375 -17.421875 C 16.972656 -17.597656 16.863281 -17.90625 16.78125 -18.34375 C 16.707031 -18.789062 16.613281 -19.15625 16.5 -19.4375 C 16.394531 -19.71875 16.28125 -19.945312 16.15625 -20.125 C 15.914062 -20.476562 15.65625 -20.671875 15.375 -20.703125 Z M 5.328125 -3.921875 C 5.828125 -4.097656 6.097656 -4.738281 6.140625 -5.84375 C 6.203125 -6.945312 6.234375 -8.472656 6.234375 -10.421875 C 6.234375 -12.378906 6.226562 -13.675781 6.21875 -14.3125 C 6.21875 -14.957031 6.210938 -15.476562 6.203125 -15.875 C 6.171875 -17.039062 6.054688 -17.742188 5.859375 -17.984375 C 5.671875 -18.222656 5.492188 -18.382812 5.328125 -18.46875 C 5.328125 -15.039062 5.269531 -13.085938 5.15625 -12.609375 C 5.019531 -12.210938 4.6875 -11.929688 4.15625 -11.765625 C 4.738281 -11.566406 5.070312 -11.316406 5.15625 -11.015625 C 5.269531 -10.546875 5.328125 -8.816406 5.328125 -5.828125 Z M 9.34375 -3.859375 C 9.34375 -3.171875 9.601562 -2.601562 10.125 -2.15625 C 10.632812 -1.738281 11.238281 -1.53125 11.9375 -1.53125 C 12.613281 -1.53125 13.179688 -1.679688 13.640625 -1.984375 C 14.535156 -2.554688 14.984375 -3.21875 14.984375 -3.96875 L 14.984375 -8.296875 C 14.984375 -9.191406 14.691406 -9.867188 14.109375 -10.328125 C 13.617188 -10.710938 12.972656 -10.90625 12.171875 -10.90625 L 9.34375 -10.90625 Z M 15.96875 -10.4375 C 16.207031 -9.90625 16.328125 -8.675781 16.328125 -6.75 C 16.328125 -4.3125 16.238281 -2.878906 16.0625 -2.453125 C 16.257812 -2.492188 16.46875 -2.742188 16.6875 -3.203125 C 16.90625 -3.671875 17.054688 -4.148438 17.140625 -4.640625 C 17.234375 -5.128906 17.296875 -5.460938 17.328125 -5.640625 C 17.367188 -5.816406 17.421875 -5.972656 17.484375 -6.109375 C 17.640625 -6.410156 17.90625 -6.625 18.28125 -6.75 C 17.695312 -6.9375 17.351562 -7.3125 17.25 -7.875 C 17.144531 -8.4375 17.039062 -8.867188 16.9375 -9.171875 C 16.84375 -9.472656 16.738281 -9.710938 16.625 -9.890625 C 16.4375 -10.210938 16.21875 -10.394531 15.96875 -10.4375 Z M 15.96875 -10.4375 "/></g></g></g><g fill="#fffcf7" fill-opacity="1"><g transform="translate(59.045636, 101.019149)"><g><path d="M 1.75 -0.109375 C 1.394531 0.160156 0.984375 0.296875 0.515625 0.296875 C 0.046875 0.296875 -0.328125 0.175781 -0.609375 -0.0625 C -0.890625 -0.300781 -1.03125 -0.578125 -1.03125 -0.890625 C -1.03125 -1.210938 -0.984375 -1.445312 -0.890625 -1.59375 C -0.597656 -1.425781 -0.242188 -1.34375 0.171875 -1.34375 C 0.585938 -1.34375 0.898438 -1.398438 1.109375 -1.515625 C 1.328125 -1.628906 1.535156 -1.785156 1.734375 -1.984375 L 3.828125 -8.203125 L 4.125 -9.21875 C 4.207031 -9.519531 4.25 -9.800781 4.25 -10.0625 C 4.25 -10.957031 3.828125 -11.523438 2.984375 -11.765625 C 3.765625 -12.066406 4.3125 -12.390625 4.625 -12.734375 C 5.113281 -13.273438 5.503906 -13.988281 5.796875 -14.875 L 7.421875 -20.328125 C 7.097656 -20.742188 6.71875 -20.953125 6.28125 -20.953125 C 5.851562 -20.953125 5.453125 -20.859375 5.078125 -20.671875 C 4.984375 -20.847656 4.9375 -21.046875 4.9375 -21.265625 C 4.9375 -21.492188 4.984375 -21.707031 5.078125 -21.90625 C 5.171875 -22.101562 5.300781 -22.273438 5.46875 -22.421875 C 5.84375 -22.734375 6.375 -22.890625 7.0625 -22.890625 C 7.75 -22.890625 8.332031 -22.6875 8.8125 -22.28125 C 9.3125 -22.6875 9.925781 -22.890625 10.65625 -22.890625 C 11.382812 -22.890625 11.96875 -22.691406 12.40625 -22.296875 C 13.039062 -22.691406 13.679688 -22.890625 14.328125 -22.890625 C 14.972656 -22.890625 15.472656 -22.765625 15.828125 -22.515625 C 16.191406 -22.273438 16.375 -21.941406 16.375 -21.515625 C 16.375 -21.316406 16.316406 -21.144531 16.203125 -21 C 15.972656 -21.164062 15.707031 -21.25 15.40625 -21.25 C 14.75 -21.25 14.320312 -20.800781 14.125 -19.90625 L 16.015625 -13.875 C 16.242188 -13.113281 16.832031 -12.519531 17.78125 -12.09375 C 18.050781 -11.976562 18.320312 -11.867188 18.59375 -11.765625 C 17.613281 -11.441406 17.125 -10.957031 17.125 -10.3125 C 17.125 -10.0625 17.160156 -9.84375 17.234375 -9.65625 L 20.0625 -2.09375 C 20.488281 -1.644531 20.921875 -1.421875 21.359375 -1.421875 C 21.804688 -1.421875 22.15625 -1.503906 22.40625 -1.671875 C 22.507812 -1.585938 22.5625 -1.4375 22.5625 -1.21875 C 22.5625 -1.007812 22.523438 -0.8125 22.453125 -0.625 C 22.390625 -0.445312 22.285156 -0.285156 22.140625 -0.140625 C 21.828125 0.148438 21.363281 0.296875 20.75 0.296875 C 20.144531 0.296875 19.613281 0.128906 19.15625 -0.203125 C 18.644531 0.128906 18.066406 0.296875 17.421875 0.296875 C 16.773438 0.296875 16.222656 0.132812 15.765625 -0.1875 C 15.316406 0.132812 14.789062 0.296875 14.1875 0.296875 C 13.59375 0.296875 13.097656 0.171875 12.703125 -0.078125 C 12.304688 -0.328125 12.097656 -0.6875 12.078125 -1.15625 C 12.078125 -1.425781 12.132812 -1.597656 12.25 -1.671875 C 12.507812 -1.503906 12.78125 -1.421875 13.0625 -1.421875 C 13.632812 -1.421875 14.039062 -1.535156 14.28125 -1.765625 L 13.15625 -5.53125 L 5.171875 -5.53125 L 4.1875 -2.28125 C 4.59375 -1.65625 5.082031 -1.34375 5.65625 -1.34375 C 6.238281 -1.34375 6.671875 -1.425781 6.953125 -1.59375 C 7.066406 -1.414062 7.125 -1.171875 7.125 -0.859375 C 7.125 -0.554688 6.96875 -0.285156 6.65625 -0.046875 C 6.351562 0.179688 5.957031 0.296875 5.46875 0.296875 C 4.988281 0.296875 4.550781 0.171875 4.15625 -0.078125 C 3.800781 0.171875 3.394531 0.296875 2.9375 0.296875 C 2.476562 0.296875 2.082031 0.160156 1.75 -0.109375 Z M 12.5625 -7.53125 L 9.125 -18.921875 L 5.765625 -7.53125 Z M 15.375 -3.921875 C 15.550781 -3.921875 15.640625 -4.113281 15.640625 -4.5 C 15.640625 -5.1875 15.535156 -5.859375 15.328125 -6.515625 L 14.765625 -8.234375 C 14.378906 -9.535156 14.1875 -10.351562 14.1875 -10.6875 C 14.175781 -11.238281 14.414062 -11.601562 14.90625 -11.78125 C 14.226562 -11.925781 13.8125 -12.140625 13.65625 -12.421875 C 13.59375 -12.535156 13.535156 -12.628906 13.484375 -12.703125 C 13.441406 -12.773438 13.398438 -12.859375 13.359375 -12.953125 C 13.316406 -13.046875 13.265625 -13.164062 13.203125 -13.3125 C 13.140625 -13.457031 13.0625 -13.664062 12.96875 -13.9375 L 12.046875 -16.703125 C 11.835938 -17.390625 11.519531 -17.910156 11.09375 -18.265625 C 10.96875 -18.378906 10.847656 -18.445312 10.734375 -18.46875 C 11.398438 -16.082031 11.832031 -14.554688 12.03125 -13.890625 C 13.46875 -9.492188 14.328125 -6.890625 14.609375 -6.078125 Z M 19.734375 -2.578125 L 19.765625 -2.5 Z M 19.734375 -2.578125 "/></g></g></g><g fill="#fffcf7" fill-opacity="1"><g transform="translate(89.654145, 101.019149)"><g><path d="M 8.34375 -0.171875 C 7.84375 0.140625 7.269531 0.296875 6.625 0.296875 C 5.988281 0.296875 5.421875 0.140625 4.921875 -0.171875 C 4.421875 0.140625 3.953125 0.296875 3.515625 0.296875 C 3.085938 0.296875 2.734375 0.257812 2.453125 0.1875 C 2.179688 0.113281 1.945312 0.0078125 1.75 -0.125 C 1.320312 -0.375 1.109375 -0.691406 1.109375 -1.078125 C 1.109375 -1.273438 1.160156 -1.445312 1.265625 -1.59375 C 1.484375 -1.425781 1.757812 -1.34375 2.09375 -1.34375 C 2.96875 -1.34375 3.578125 -1.71875 3.921875 -2.46875 L 3.921875 -9.6875 C 3.921875 -10.144531 3.828125 -10.476562 3.640625 -10.6875 C 3.335938 -11.050781 2.828125 -11.410156 2.109375 -11.765625 C 2.773438 -12.078125 3.207031 -12.347656 3.40625 -12.578125 C 3.75 -12.960938 3.921875 -13.398438 3.921875 -13.890625 L 3.921875 -20.125 C 3.578125 -20.875 2.96875 -21.25 2.09375 -21.25 C 1.757812 -21.25 1.484375 -21.164062 1.265625 -21 C 1.160156 -21.144531 1.109375 -21.3125 1.109375 -21.5 C 1.109375 -21.695312 1.164062 -21.878906 1.28125 -22.046875 C 1.394531 -22.210938 1.550781 -22.359375 1.75 -22.484375 C 2.195312 -22.753906 2.710938 -22.890625 3.296875 -22.890625 C 3.890625 -22.890625 4.429688 -22.726562 4.921875 -22.40625 C 5.429688 -22.726562 6 -22.890625 6.625 -22.890625 C 7.257812 -22.890625 7.832031 -22.726562 8.34375 -22.40625 C 9.457031 -22.832031 10.691406 -23.046875 12.046875 -23.046875 C 13.398438 -23.046875 14.535156 -22.921875 15.453125 -22.671875 C 16.367188 -22.421875 17.15625 -22.070312 17.8125 -21.625 C 19.144531 -20.707031 19.972656 -19.429688 20.296875 -17.796875 C 20.421875 -17.066406 20.890625 -16.515625 21.703125 -16.140625 C 20.929688 -15.710938 20.425781 -15.023438 20.1875 -14.078125 C 19.707031 -12.128906 18.503906 -10.910156 16.578125 -10.421875 C 17.566406 -10.160156 18.378906 -9.613281 19.015625 -8.78125 C 19.660156 -7.925781 19.984375 -6.921875 19.984375 -5.765625 L 19.984375 -4.28125 C 19.984375 -2.863281 20.441406 -1.945312 21.359375 -1.53125 C 21.628906 -1.40625 21.925781 -1.34375 22.25 -1.34375 C 22.582031 -1.34375 22.859375 -1.425781 23.078125 -1.59375 C 23.179688 -1.445312 23.234375 -1.273438 23.234375 -1.078125 C 23.234375 -0.890625 23.179688 -0.710938 23.078125 -0.546875 C 22.984375 -0.378906 22.851562 -0.238281 22.6875 -0.125 C 22.332031 0.15625 21.914062 0.296875 21.4375 0.296875 C 20.96875 0.296875 20.507812 0.164062 20.0625 -0.09375 C 19.226562 0.363281 18.453125 0.410156 17.734375 0.046875 C 17.460938 0.210938 17.171875 0.296875 16.859375 0.296875 C 16.554688 0.296875 16.265625 0.222656 15.984375 0.078125 C 15.703125 -0.0546875 15.457031 -0.28125 15.25 -0.59375 C 14.78125 -1.269531 14.546875 -2.3125 14.546875 -3.71875 L 14.546875 -4.8125 C 14.546875 -7.09375 13.894531 -8.570312 12.59375 -9.25 C 12.164062 -9.476562 11.660156 -9.59375 11.078125 -9.59375 L 9.34375 -9.59375 L 9.34375 -2.390625 C 9.613281 -1.691406 10.125 -1.34375 10.875 -1.34375 C 11.207031 -1.34375 11.484375 -1.425781 11.703125 -1.59375 C 11.804688 -1.445312 11.859375 -1.226562 11.859375 -0.9375 C 11.859375 -0.65625 11.703125 -0.378906 11.390625 -0.109375 C 11.085938 0.160156 10.625 0.296875 10 0.296875 C 9.375 0.296875 8.820312 0.140625 8.34375 -0.171875 Z M 12.1875 -21.078125 C 10.289062 -21.078125 9.34375 -20.34375 9.34375 -18.875 L 9.34375 -12.828125 C 9.34375 -12.316406 9.546875 -11.972656 9.953125 -11.796875 C 10.335938 -11.628906 10.90625 -11.546875 11.65625 -11.546875 C 12.414062 -11.546875 12.941406 -11.585938 13.234375 -11.671875 C 13.535156 -11.753906 13.796875 -11.898438 14.015625 -12.109375 C 14.460938 -12.535156 14.6875 -13.242188 14.6875 -14.234375 L 14.6875 -18.546875 C 14.6875 -19.773438 14.171875 -20.566406 13.140625 -20.921875 C 12.835938 -21.023438 12.519531 -21.078125 12.1875 -21.078125 Z M 15.671875 -20.125 C 15.972656 -19.4375 16.125 -18.335938 16.125 -16.828125 C 16.125 -14.210938 16.003906 -12.648438 15.765625 -12.140625 C 16.304688 -12.242188 16.691406 -12.96875 16.921875 -14.3125 L 17.046875 -14.921875 C 17.148438 -15.554688 17.460938 -15.960938 17.984375 -16.140625 C 17.609375 -16.273438 17.363281 -16.429688 17.25 -16.609375 C 17.132812 -16.804688 17.03125 -17.15625 16.9375 -17.65625 C 16.84375 -18.15625 16.742188 -18.554688 16.640625 -18.859375 C 16.546875 -19.160156 16.445312 -19.398438 16.34375 -19.578125 C 16.15625 -19.898438 15.929688 -20.082031 15.671875 -20.125 Z M 5.328125 -3.921875 C 5.828125 -4.097656 6.097656 -4.738281 6.140625 -5.84375 C 6.203125 -6.945312 6.234375 -8.472656 6.234375 -10.421875 C 6.234375 -12.378906 6.226562 -13.675781 6.21875 -14.3125 C 6.21875 -14.957031 6.210938 -15.476562 6.203125 -15.875 C 6.171875 -17.039062 6.054688 -17.742188 5.859375 -17.984375 C 5.671875 -18.222656 5.492188 -18.382812 5.328125 -18.46875 C 5.328125 -15.039062 5.269531 -13.085938 5.15625 -12.609375 C 5.019531 -12.210938 4.6875 -11.929688 4.15625 -11.765625 C 4.738281 -11.566406 5.070312 -11.316406 5.15625 -11.015625 C 5.269531 -10.546875 5.328125 -8.816406 5.328125 -5.828125 Z M 15.53125 -7.96875 C 15.914062 -7.519531 16.109375 -6.976562 16.109375 -6.34375 L 16.109375 -4.390625 C 16.109375 -2.753906 16.4375 -1.878906 17.09375 -1.765625 C 17.269531 -1.742188 17.441406 -1.75 17.609375 -1.78125 C 17.253906 -2.332031 17.078125 -2.914062 17.078125 -3.53125 L 17.078125 -5.59375 C 17.078125 -6.375 16.96875 -6.925781 16.75 -7.25 C 16.375 -7.800781 15.96875 -8.039062 15.53125 -7.96875 Z M 15.53125 -7.96875 "/></g></g></g><g fill="#fffcf7" fill-opacity="1"><g transform="translate(121.665676, 101.019149)"><g><path d="M 6.640625 0.296875 C 5.992188 0.296875 5.421875 0.140625 4.921875 -0.171875 C 4.421875 0.140625 3.953125 0.296875 3.515625 0.296875 C 3.085938 0.296875 2.734375 0.257812 2.453125 0.1875 C 2.179688 0.113281 1.945312 0.0078125 1.75 -0.125 C 1.320312 -0.375 1.109375 -0.691406 1.109375 -1.078125 C 1.109375 -1.273438 1.160156 -1.445312 1.265625 -1.59375 C 1.484375 -1.425781 1.757812 -1.34375 2.09375 -1.34375 C 2.96875 -1.34375 3.578125 -1.71875 3.921875 -2.46875 L 3.921875 -9.6875 C 3.921875 -10.132812 3.828125 -10.472656 3.640625 -10.703125 C 3.335938 -11.085938 2.828125 -11.453125 2.109375 -11.796875 C 2.773438 -12.109375 3.207031 -12.375 3.40625 -12.59375 C 3.75 -12.976562 3.921875 -13.410156 3.921875 -13.890625 L 3.921875 -20.125 C 3.578125 -20.875 2.96875 -21.25 2.09375 -21.25 C 1.757812 -21.25 1.484375 -21.164062 1.265625 -21 C 1.160156 -21.144531 1.109375 -21.3125 1.109375 -21.5 C 1.109375 -21.695312 1.164062 -21.878906 1.28125 -22.046875 C 1.394531 -22.210938 1.550781 -22.359375 1.75 -22.484375 C 2.195312 -22.753906 2.710938 -22.890625 3.296875 -22.890625 C 3.890625 -22.890625 4.429688 -22.726562 4.921875 -22.40625 C 5.429688 -22.726562 6 -22.890625 6.625 -22.890625 C 7.320312 -22.890625 7.925781 -22.707031 8.4375 -22.34375 C 9.53125 -22.8125 10.617188 -23.046875 11.703125 -23.046875 C 12.785156 -23.046875 13.769531 -22.9375 14.65625 -22.71875 C 15.550781 -22.507812 16.359375 -22.210938 17.078125 -21.828125 C 18.640625 -21.003906 19.613281 -19.929688 20 -18.609375 C 20.21875 -17.878906 20.6875 -17.335938 21.40625 -16.984375 C 20.601562 -16.429688 20.109375 -15.800781 19.921875 -15.09375 C 19.515625 -13.539062 18.679688 -12.523438 17.421875 -12.046875 C 19.265625 -11.535156 20.46875 -10.328125 21.03125 -8.421875 C 21.226562 -7.742188 21.695312 -7.1875 22.4375 -6.75 C 21.675781 -6.320312 21.164062 -5.679688 20.90625 -4.828125 C 20.65625 -3.972656 20.207031 -3.203125 19.5625 -2.515625 C 18.914062 -1.828125 18.164062 -1.265625 17.3125 -0.828125 C 15.65625 0.015625 13.789062 0.4375 11.71875 0.4375 C 10.476562 0.4375 9.367188 0.21875 8.390625 -0.21875 C 7.878906 0.125 7.296875 0.296875 6.640625 0.296875 Z M 12.109375 -12.765625 C 12.972656 -12.765625 13.585938 -12.96875 13.953125 -13.375 C 14.335938 -13.800781 14.53125 -14.53125 14.53125 -15.5625 L 14.53125 -18.984375 C 14.53125 -19.578125 14.21875 -20.082031 13.59375 -20.5 C 13.039062 -20.863281 12.53125 -21.046875 12.0625 -21.046875 C 11.59375 -21.046875 11.207031 -20.988281 10.90625 -20.875 C 10.601562 -20.757812 10.335938 -20.601562 10.109375 -20.40625 C 9.597656 -20 9.34375 -19.503906 9.34375 -18.921875 L 9.34375 -12.765625 Z M 15.375 -20.703125 C 15.707031 -19.953125 15.875 -18.859375 15.875 -17.421875 C 15.875 -15.304688 15.738281 -13.9375 15.46875 -13.3125 C 15.875 -13.382812 16.222656 -13.78125 16.515625 -14.5 C 16.617188 -14.769531 16.695312 -15.050781 16.75 -15.34375 C 16.8125 -15.644531 16.859375 -15.875 16.890625 -16.03125 C 16.921875 -16.195312 16.972656 -16.335938 17.046875 -16.453125 C 17.191406 -16.703125 17.457031 -16.890625 17.84375 -17.015625 C 17.445312 -17.140625 17.203125 -17.273438 17.109375 -17.421875 C 16.972656 -17.597656 16.863281 -17.90625 16.78125 -18.34375 C 16.707031 -18.789062 16.613281 -19.15625 16.5 -19.4375 C 16.394531 -19.71875 16.28125 -19.945312 16.15625 -20.125 C 15.914062 -20.476562 15.65625 -20.671875 15.375 -20.703125 Z M 5.328125 -3.921875 C 5.828125 -4.097656 6.097656 -4.738281 6.140625 -5.84375 C 6.203125 -6.945312 6.234375 -8.472656 6.234375 -10.421875 C 6.234375 -12.378906 6.226562 -13.675781 6.21875 -14.3125 C 6.21875 -14.957031 6.210938 -15.476562 6.203125 -15.875 C 6.171875 -17.039062 6.054688 -17.742188 5.859375 -17.984375 C 5.671875 -18.222656 5.492188 -18.382812 5.328125 -18.46875 C 5.328125 -15.039062 5.269531 -13.085938 5.15625 -12.609375 C 5.019531 -12.210938 4.6875 -11.929688 4.15625 -11.765625 C 4.738281 -11.566406 5.070312 -11.316406 5.15625 -11.015625 C 5.269531 -10.546875 5.328125 -8.816406 5.328125 -5.828125 Z M 9.34375 -3.859375 C 9.34375 -3.171875 9.601562 -2.601562 10.125 -2.15625 C 10.632812 -1.738281 11.238281 -1.53125 11.9375 -1.53125 C 12.613281 -1.53125 13.179688 -1.679688 13.640625 -1.984375 C 14.535156 -2.554688 14.984375 -3.21875 14.984375 -3.96875 L 14.984375 -8.296875 C 14.984375 -9.191406 14.691406 -9.867188 14.109375 -10.328125 C 13.617188 -10.710938 12.972656 -10.90625 12.171875 -10.90625 L 9.34375 -10.90625 Z M 15.96875 -10.4375 C 16.207031 -9.90625 16.328125 -8.675781 16.328125 -6.75 C 16.328125 -4.3125 16.238281 -2.878906 16.0625 -2.453125 C 16.257812 -2.492188 16.46875 -2.742188 16.6875 -3.203125 C 16.90625 -3.671875 17.054688 -4.148438 17.140625 -4.640625 C 17.234375 -5.128906 17.296875 -5.460938 17.328125 -5.640625 C 17.367188 -5.816406 17.421875 -5.972656 17.484375 -6.109375 C 17.640625 -6.410156 17.90625 -6.625 18.28125 -6.75 C 17.695312 -6.9375 17.351562 -7.3125 17.25 -7.875 C 17.144531 -8.4375 17.039062 -8.867188 16.9375 -9.171875 C 16.84375 -9.472656 16.738281 -9.710938 16.625 -9.890625 C 16.4375 -10.210938 16.21875 -10.394531 15.96875 -10.4375 Z M 15.96875 -10.4375 "/></g></g></g><g fill="#fffcf7" fill-opacity="1"><g transform="translate(153.204613, 101.019149)"><g><path d="M 6.640625 0.296875 C 5.992188 0.296875 5.421875 0.140625 4.921875 -0.171875 C 4.421875 0.140625 3.953125 0.296875 3.515625 0.296875 C 3.085938 0.296875 2.734375 0.257812 2.453125 0.1875 C 2.179688 0.113281 1.945312 0.0078125 1.75 -0.125 C 1.320312 -0.375 1.109375 -0.691406 1.109375 -1.078125 C 1.109375 -1.273438 1.160156 -1.445312 1.265625 -1.59375 C 1.484375 -1.425781 1.757812 -1.34375 2.09375 -1.34375 C 2.96875 -1.34375 3.578125 -1.71875 3.921875 -2.46875 L 3.921875 -9.6875 C 3.921875 -10.144531 3.828125 -10.476562 3.640625 -10.6875 C 3.335938 -11.050781 2.828125 -11.410156 2.109375 -11.765625 C 2.773438 -12.078125 3.207031 -12.347656 3.40625 -12.578125 C 3.75 -12.960938 3.921875 -13.398438 3.921875 -13.890625 L 3.921875 -20.125 C 3.578125 -20.875 2.96875 -21.25 2.09375 -21.25 C 1.757812 -21.25 1.484375 -21.164062 1.265625 -21 C 1.160156 -21.144531 1.109375 -21.3125 1.109375 -21.5 C 1.109375 -21.695312 1.164062 -21.878906 1.28125 -22.046875 C 1.394531 -22.210938 1.550781 -22.359375 1.75 -22.484375 C 2.195312 -22.753906 2.710938 -22.890625 3.296875 -22.890625 C 3.890625 -22.890625 4.429688 -22.726562 4.921875 -22.40625 C 5.429688 -22.726562 6.015625 -22.890625 6.671875 -22.890625 C 7.335938 -22.890625 7.941406 -22.695312 8.484375 -22.3125 C 9.523438 -22.695312 10.726562 -22.890625 12.09375 -22.890625 C 13.113281 -22.890625 13.984375 -22.789062 14.703125 -22.59375 L 16.015625 -22.25 C 16.171875 -22.207031 16.320312 -22.1875 16.46875 -22.1875 C 16.738281 -22.1875 16.875 -22.382812 16.875 -22.78125 C 16.875 -22.875 16.84375 -23.039062 16.78125 -23.28125 C 17.050781 -23.332031 17.398438 -23.359375 17.828125 -23.359375 C 18.253906 -23.359375 18.613281 -23.21875 18.90625 -22.9375 C 19.195312 -22.65625 19.34375 -22.25 19.34375 -21.71875 C 19.34375 -21.195312 19.25 -20.8125 19.0625 -20.5625 C 19.332031 -20.164062 19.46875 -19.679688 19.46875 -19.109375 C 19.46875 -18.546875 19.273438 -18.070312 18.890625 -17.6875 C 19.003906 -17.394531 19.0625 -17.109375 19.0625 -16.828125 C 19.0625 -16.546875 19.015625 -16.289062 18.921875 -16.0625 C 18.828125 -15.832031 18.710938 -15.640625 18.578125 -15.484375 C 18.304688 -15.191406 18.023438 -15.046875 17.734375 -15.046875 C 17.328125 -15.046875 16.953125 -15.132812 16.609375 -15.3125 C 16.734375 -15.550781 16.796875 -15.898438 16.796875 -16.359375 C 16.796875 -17.441406 16.523438 -18.394531 15.984375 -19.21875 C 15.242188 -20.34375 14.132812 -20.90625 12.65625 -20.90625 C 11.90625 -20.90625 11.226562 -20.722656 10.625 -20.359375 C 10.019531 -19.992188 9.59375 -19.46875 9.34375 -18.78125 L 9.34375 -13.078125 C 9.6875 -12.859375 10.007812 -12.75 10.3125 -12.75 C 10.613281 -12.75 10.835938 -12.753906 10.984375 -12.765625 C 11.140625 -12.773438 11.300781 -12.796875 11.46875 -12.828125 C 11.863281 -12.878906 12.171875 -12.957031 12.390625 -13.0625 C 12.804688 -13.257812 13.015625 -13.738281 13.015625 -14.5 C 13.015625 -14.9375 12.910156 -15.273438 12.703125 -15.515625 C 12.898438 -15.648438 13.144531 -15.71875 13.4375 -15.71875 C 14.101562 -15.71875 14.582031 -15.453125 14.875 -14.921875 C 14.976562 -14.734375 15.03125 -14.523438 15.03125 -14.296875 C 15.03125 -14.066406 14.972656 -13.785156 14.859375 -13.453125 C 15.265625 -12.992188 15.46875 -12.445312 15.46875 -11.8125 C 15.46875 -11.175781 15.265625 -10.625 14.859375 -10.15625 C 14.972656 -9.820312 15.03125 -9.519531 15.03125 -9.25 C 15.03125 -8.976562 14.976562 -8.71875 14.875 -8.46875 C 14.769531 -8.226562 14.632812 -8.035156 14.46875 -7.890625 C 14.164062 -7.609375 13.820312 -7.46875 13.4375 -7.46875 C 13.164062 -7.46875 12.921875 -7.546875 12.703125 -7.703125 C 12.910156 -8.054688 13.015625 -8.460938 13.015625 -8.921875 C 13.015625 -9.835938 12.765625 -10.40625 12.265625 -10.625 C 11.816406 -10.800781 11.304688 -10.890625 10.734375 -10.890625 C 10.160156 -10.890625 9.695312 -10.785156 9.34375 -10.578125 L 9.34375 -3.1875 C 9.914062 -2.1875 11.019531 -1.6875 12.65625 -1.6875 C 14.507812 -1.6875 15.769531 -2.253906 16.4375 -3.390625 C 17.21875 -4.703125 17.609375 -6.109375 17.609375 -7.609375 C 17.609375 -8.035156 17.566406 -8.367188 17.484375 -8.609375 C 17.734375 -8.859375 17.988281 -8.984375 18.25 -8.984375 C 18.519531 -8.984375 18.722656 -8.945312 18.859375 -8.875 C 18.992188 -8.800781 19.117188 -8.707031 19.234375 -8.59375 C 19.460938 -8.332031 19.578125 -8.0625 19.578125 -7.78125 L 19.5 -7.0625 C 19.5 -6.875 19.546875 -6.722656 19.640625 -6.609375 C 19.835938 -6.398438 19.9375 -6.203125 19.9375 -6.015625 C 19.9375 -5.835938 19.878906 -5.617188 19.765625 -5.359375 C 19.992188 -5.234375 20.195312 -5.046875 20.375 -4.796875 C 20.5625 -4.546875 20.65625 -4.285156 20.65625 -4.015625 C 20.65625 -3.453125 20.414062 -2.953125 19.9375 -2.515625 C 20.144531 -2.210938 20.25 -1.785156 20.25 -1.234375 C 20.25 -0.679688 20.085938 -0.210938 19.765625 0.171875 C 19.453125 0.566406 19.035156 0.765625 18.515625 0.765625 C 18.242188 0.765625 17.960938 0.734375 17.671875 0.671875 C 17.703125 0.460938 17.71875 0.25 17.71875 0.03125 C 17.71875 -0.425781 17.515625 -0.65625 17.109375 -0.65625 C 16.640625 -0.65625 16.175781 -0.5625 15.71875 -0.375 C 14.625 0.0703125 13.378906 0.296875 11.984375 0.296875 C 10.585938 0.296875 9.40625 0.113281 8.4375 -0.25 C 7.925781 0.113281 7.328125 0.296875 6.640625 0.296875 Z M 5.328125 -3.921875 C 5.828125 -4.097656 6.097656 -4.738281 6.140625 -5.84375 C 6.203125 -6.945312 6.234375 -8.472656 6.234375 -10.421875 C 6.234375 -12.378906 6.226562 -13.675781 6.21875 -14.3125 C 6.21875 -14.957031 6.210938 -15.476562 6.203125 -15.875 C 6.171875 -17.039062 6.054688 -17.742188 5.859375 -17.984375 C 5.671875 -18.222656 5.492188 -18.382812 5.328125 -18.46875 C 5.328125 -15.039062 5.269531 -13.085938 5.15625 -12.609375 C 5.019531 -12.210938 4.6875 -11.929688 4.15625 -11.765625 C 4.738281 -11.566406 5.070312 -11.316406 5.15625 -11.015625 C 5.269531 -10.546875 5.328125 -8.816406 5.328125 -5.828125 Z M 9.046875 -4.0625 C 9.046875 -4.03125 9.050781 -4.003906 9.0625 -3.984375 Z M 9.046875 -4.0625 "/></g></g></g><g fill="#fffcf7" fill-opacity="1"><g transform="translate(183.562055, 101.019149)"><g><path d="M 8.34375 -0.171875 C 7.84375 0.140625 7.269531 0.296875 6.625 0.296875 C 5.988281 0.296875 5.421875 0.140625 4.921875 -0.171875 C 4.421875 0.140625 3.953125 0.296875 3.515625 0.296875 C 3.085938 0.296875 2.734375 0.257812 2.453125 0.1875 C 2.179688 0.113281 1.945312 0.0078125 1.75 -0.125 C 1.320312 -0.375 1.109375 -0.691406 1.109375 -1.078125 C 1.109375 -1.273438 1.160156 -1.445312 1.265625 -1.59375 C 1.484375 -1.425781 1.757812 -1.34375 2.09375 -1.34375 C 2.96875 -1.34375 3.578125 -1.71875 3.921875 -2.46875 L 3.921875 -9.6875 C 3.921875 -10.144531 3.828125 -10.476562 3.640625 -10.6875 C 3.335938 -11.050781 2.828125 -11.410156 2.109375 -11.765625 C 2.773438 -12.078125 3.207031 -12.347656 3.40625 -12.578125 C 3.75 -12.960938 3.921875 -13.398438 3.921875 -13.890625 L 3.921875 -20.125 C 3.578125 -20.875 2.96875 -21.25 2.09375 -21.25 C 1.757812 -21.25 1.484375 -21.164062 1.265625 -21 C 1.160156 -21.144531 1.109375 -21.3125 1.109375 -21.5 C 1.109375 -21.695312 1.164062 -21.878906 1.28125 -22.046875 C 1.394531 -22.210938 1.550781 -22.359375 1.75 -22.484375 C 2.195312 -22.753906 2.710938 -22.890625 3.296875 -22.890625 C 3.890625 -22.890625 4.429688 -22.726562 4.921875 -22.40625 C 5.429688 -22.726562 6 -22.890625 6.625 -22.890625 C 7.257812 -22.890625 7.832031 -22.726562 8.34375 -22.40625 C 9.457031 -22.832031 10.691406 -23.046875 12.046875 -23.046875 C 13.398438 -23.046875 14.535156 -22.921875 15.453125 -22.671875 C 16.367188 -22.421875 17.15625 -22.070312 17.8125 -21.625 C 19.144531 -20.707031 19.972656 -19.429688 20.296875 -17.796875 C 20.421875 -17.066406 20.890625 -16.515625 21.703125 -16.140625 C 20.929688 -15.710938 20.425781 -15.023438 20.1875 -14.078125 C 19.707031 -12.128906 18.503906 -10.910156 16.578125 -10.421875 C 17.566406 -10.160156 18.378906 -9.613281 19.015625 -8.78125 C 19.660156 -7.925781 19.984375 -6.921875 19.984375 -5.765625 L 19.984375 -4.28125 C 19.984375 -2.863281 20.441406 -1.945312 21.359375 -1.53125 C 21.628906 -1.40625 21.925781 -1.34375 22.25 -1.34375 C 22.582031 -1.34375 22.859375 -1.425781 23.078125 -1.59375 C 23.179688 -1.445312 23.234375 -1.273438 23.234375 -1.078125 C 23.234375 -0.890625 23.179688 -0.710938 23.078125 -0.546875 C 22.984375 -0.378906 22.851562 -0.238281 22.6875 -0.125 C 22.332031 0.15625 21.914062 0.296875 21.4375 0.296875 C 20.96875 0.296875 20.507812 0.164062 20.0625 -0.09375 C 19.226562 0.363281 18.453125 0.410156 17.734375 0.046875 C 17.460938 0.210938 17.171875 0.296875 16.859375 0.296875 C 16.554688 0.296875 16.265625 0.222656 15.984375 0.078125 C 15.703125 -0.0546875 15.457031 -0.28125 15.25 -0.59375 C 14.78125 -1.269531 14.546875 -2.3125 14.546875 -3.71875 L 14.546875 -4.8125 C 14.546875 -7.09375 13.894531 -8.570312 12.59375 -9.25 C 12.164062 -9.476562 11.660156 -9.59375 11.078125 -9.59375 L 9.34375 -9.59375 L 9.34375 -2.390625 C 9.613281 -1.691406 10.125 -1.34375 10.875 -1.34375 C 11.207031 -1.34375 11.484375 -1.425781 11.703125 -1.59375 C 11.804688 -1.445312 11.859375 -1.226562 11.859375 -0.9375 C 11.859375 -0.65625 11.703125 -0.378906 11.390625 -0.109375 C 11.085938 0.160156 10.625 0.296875 10 0.296875 C 9.375 0.296875 8.820312 0.140625 8.34375 -0.171875 Z M 12.1875 -21.078125 C 10.289062 -21.078125 9.34375 -20.34375 9.34375 -18.875 L 9.34375 -12.828125 C 9.34375 -12.316406 9.546875 -11.972656 9.953125 -11.796875 C 10.335938 -11.628906 10.90625 -11.546875 11.65625 -11.546875 C 12.414062 -11.546875 12.941406 -11.585938 13.234375 -11.671875 C 13.535156 -11.753906 13.796875 -11.898438 14.015625 -12.109375 C 14.460938 -12.535156 14.6875 -13.242188 14.6875 -14.234375 L 14.6875 -18.546875 C 14.6875 -19.773438 14.171875 -20.566406 13.140625 -20.921875 C 12.835938 -21.023438 12.519531 -21.078125 12.1875 -21.078125 Z M 15.671875 -20.125 C 15.972656 -19.4375 16.125 -18.335938 16.125 -16.828125 C 16.125 -14.210938 16.003906 -12.648438 15.765625 -12.140625 C 16.304688 -12.242188 16.691406 -12.96875 16.921875 -14.3125 L 17.046875 -14.921875 C 17.148438 -15.554688 17.460938 -15.960938 17.984375 -16.140625 C 17.609375 -16.273438 17.363281 -16.429688 17.25 -16.609375 C 17.132812 -16.804688 17.03125 -17.15625 16.9375 -17.65625 C 16.84375 -18.15625 16.742188 -18.554688 16.640625 -18.859375 C 16.546875 -19.160156 16.445312 -19.398438 16.34375 -19.578125 C 16.15625 -19.898438 15.929688 -20.082031 15.671875 -20.125 Z M 5.328125 -3.921875 C 5.828125 -4.097656 6.097656 -4.738281 6.140625 -5.84375 C 6.203125 -6.945312 6.234375 -8.472656 6.234375 -10.421875 C 6.234375 -12.378906 6.226562 -13.675781 6.21875 -14.3125 C 6.21875 -14.957031 6.210938 -15.476562 6.203125 -15.875 C 6.171875 -17.039062 6.054688 -17.742188 5.859375 -17.984375 C 5.671875 -18.222656 5.492188 -18.382812 5.328125 -18.46875 C 5.328125 -15.039062 5.269531 -13.085938 5.15625 -12.609375 C 5.019531 -12.210938 4.6875 -11.929688 4.15625 -11.765625 C 4.738281 -11.566406 5.070312 -11.316406 5.15625 -11.015625 C 5.269531 -10.546875 5.328125 -8.816406 5.328125 -5.828125 Z M 15.53125 -7.96875 C 15.914062 -7.519531 16.109375 -6.976562 16.109375 -6.34375 L 16.109375 -4.390625 C 16.109375 -2.753906 16.4375 -1.878906 17.09375 -1.765625 C 17.269531 -1.742188 17.441406 -1.75 17.609375 -1.78125 C 17.253906 -2.332031 17.078125 -2.914062 17.078125 -3.53125 L 17.078125 -5.59375 C 17.078125 -6.375 16.96875 -6.925781 16.75 -7.25 C 16.375 -7.800781 15.96875 -8.039062 15.53125 -7.96875 Z M 15.53125 -7.96875 "/></g></g></g><g fill="#fffcf7" fill-opacity="1"><g transform="translate(215.573581, 101.019149)"><g/></g></g><g fill="#fffcf7" fill-opacity="1"><g transform="translate(232.033777, 101.019149)"><g><path d="M 5.203125 -0.578125 C 4.410156 0.210938 3.660156 0.609375 2.953125 0.609375 C 2.503906 0.609375 2.195312 0.441406 2.03125 0.109375 C 2.257812 -0.171875 2.375 -0.585938 2.375 -1.140625 L 2.375 -1.359375 C 2.375 -1.421875 2.367188 -1.472656 2.359375 -1.515625 C 1.867188 -1.960938 1.625 -2.488281 1.625 -3.09375 C 1.625 -3.695312 1.910156 -4.316406 2.484375 -4.953125 C 2.316406 -5.285156 2.234375 -5.640625 2.234375 -6.015625 C 2.234375 -6.398438 2.285156 -6.753906 2.390625 -7.078125 C 2.503906 -7.410156 2.660156 -7.703125 2.859375 -7.953125 C 3.273438 -8.492188 3.679688 -8.765625 4.078125 -8.765625 C 4.484375 -8.765625 4.769531 -8.601562 4.9375 -8.28125 C 4.582031 -7.90625 4.40625 -7.316406 4.40625 -6.515625 C 4.40625 -5.722656 4.519531 -5.03125 4.75 -4.4375 C 4.976562 -3.851562 5.304688 -3.347656 5.734375 -2.921875 C 6.640625 -1.992188 7.796875 -1.53125 9.203125 -1.53125 C 10.148438 -1.53125 10.953125 -1.800781 11.609375 -2.34375 C 12.316406 -2.925781 12.671875 -3.722656 12.671875 -4.734375 C 12.671875 -5.441406 12.503906 -6.015625 12.171875 -6.453125 C 11.648438 -7.140625 10.832031 -7.867188 9.71875 -8.640625 C 8.863281 -9.242188 8.179688 -9.546875 7.671875 -9.546875 C 7.148438 -9.546875 6.570312 -9.332031 5.9375 -8.90625 C 6.101562 -9.40625 6.1875 -9.875 6.1875 -10.3125 C 6.1875 -10.40625 6.09375 -10.53125 5.90625 -10.6875 L 5.359375 -11.1875 C 3.640625 -12.769531 2.617188 -14.238281 2.296875 -15.59375 C 2.191406 -16.070312 2.140625 -16.664062 2.140625 -17.375 C 2.140625 -18.09375 2.3125 -18.816406 2.65625 -19.546875 C 3.007812 -20.285156 3.492188 -20.910156 4.109375 -21.421875 C 5.378906 -22.503906 6.992188 -23.046875 8.953125 -23.046875 C 10.140625 -23.046875 11.234375 -22.851562 12.234375 -22.46875 C 12.648438 -22.300781 13.128906 -22.21875 13.671875 -22.21875 C 13.898438 -22.21875 14.101562 -22.226562 14.28125 -22.25 C 14.46875 -22.269531 14.628906 -22.367188 14.765625 -22.546875 C 14.898438 -22.734375 14.96875 -22.898438 14.96875 -23.046875 C 14.96875 -23.203125 14.945312 -23.328125 14.90625 -23.421875 C 14.96875 -23.453125 15.0625 -23.46875 15.1875 -23.46875 C 15.3125 -23.46875 15.445312 -23.425781 15.59375 -23.34375 C 15.738281 -23.257812 15.875 -23.144531 16 -23 C 16.257812 -22.664062 16.390625 -22.285156 16.390625 -21.859375 C 16.390625 -21.441406 16.273438 -21.128906 16.046875 -20.921875 C 16.378906 -20.617188 16.546875 -20.160156 16.546875 -19.546875 C 16.546875 -18.929688 16.335938 -18.414062 15.921875 -18 C 16.003906 -17.738281 16.046875 -17.5 16.046875 -17.28125 C 16.046875 -17.070312 16.003906 -16.867188 15.921875 -16.671875 C 15.847656 -16.484375 15.75 -16.320312 15.625 -16.1875 C 15.34375 -15.882812 15.070312 -15.734375 14.8125 -15.734375 C 14.40625 -15.734375 14.066406 -15.800781 13.796875 -15.9375 C 13.960938 -16.332031 14.046875 -16.753906 14.046875 -17.203125 C 14.046875 -17.660156 13.941406 -18.125 13.734375 -18.59375 C 13.535156 -19.070312 13.253906 -19.492188 12.890625 -19.859375 C 12.128906 -20.578125 11.125 -20.9375 9.875 -20.9375 C 9.09375 -20.9375 8.453125 -20.695312 7.953125 -20.21875 C 7.472656 -19.769531 7.234375 -19.222656 7.234375 -18.578125 C 7.234375 -18.097656 7.351562 -17.695312 7.59375 -17.375 C 8.007812 -16.8125 8.664062 -16.226562 9.5625 -15.625 L 10.265625 -15.15625 C 10.660156 -14.90625 10.925781 -14.78125 11.0625 -14.78125 C 11.195312 -14.78125 11.332031 -14.796875 11.46875 -14.828125 C 11.613281 -14.859375 11.769531 -14.898438 11.9375 -14.953125 C 12.289062 -15.066406 12.632812 -15.234375 12.96875 -15.453125 L 12.78125 -14.625 C 12.71875 -14.34375 12.6875 -14.140625 12.6875 -14.015625 C 12.6875 -13.804688 12.789062 -13.617188 13 -13.453125 C 14.84375 -11.859375 16.070312 -10.523438 16.6875 -9.453125 C 17.226562 -8.515625 17.5 -7.503906 17.5 -6.421875 C 17.5 -5.335938 17.320312 -4.40625 16.96875 -3.625 C 16.613281 -2.851562 16.097656 -2.164062 15.421875 -1.5625 C 13.921875 -0.226562 11.976562 0.4375 9.59375 0.4375 C 7.90625 0.4375 6.441406 0.0976562 5.203125 -0.578125 Z M 4.1875 -18.46875 C 3.820312 -18.3125 3.640625 -17.898438 3.640625 -17.234375 C 3.640625 -15.890625 4.539062 -14.410156 6.34375 -12.796875 L 7.21875 -12 C 7.53125 -11.71875 7.664062 -11.503906 7.625 -11.359375 C 7.59375 -11.210938 7.5625 -11.09375 7.53125 -11 C 7.507812 -10.914062 7.484375 -10.832031 7.453125 -10.75 C 7.429688 -10.675781 7.414062 -10.617188 7.40625 -10.578125 C 7.75 -10.785156 8.023438 -10.890625 8.234375 -10.890625 C 8.671875 -10.890625 9.082031 -10.769531 9.46875 -10.53125 C 11.363281 -9.351562 12.65625 -8.300781 13.34375 -7.375 C 13.832031 -6.6875 14.085938 -5.835938 14.109375 -4.828125 C 14.109375 -4.460938 14.082031 -4.160156 14.03125 -3.921875 C 14.550781 -4.253906 14.8125 -4.785156 14.8125 -5.515625 C 14.8125 -6.222656 14.710938 -6.765625 14.515625 -7.140625 C 14.328125 -7.523438 14.101562 -7.867188 13.84375 -8.171875 C 13.59375 -8.472656 13.265625 -8.800781 12.859375 -9.15625 C 12.453125 -9.507812 11.945312 -9.894531 11.34375 -10.3125 L 9.25 -11.75 C 7.519531 -12.875 6.207031 -14.066406 5.3125 -15.328125 C 4.53125 -16.441406 4.15625 -17.488281 4.1875 -18.46875 Z M 4.1875 -18.46875 "/></g></g></g><g fill="#fffcf7" fill-opacity="1"><g transform="translate(259.644272, 101.019149)"><g><path d="M 8.21875 -0.15625 C 7.71875 0.144531 7.15625 0.296875 6.53125 0.296875 C 5.914062 0.296875 5.390625 0.140625 4.953125 -0.171875 C 4.441406 0.140625 3.972656 0.296875 3.546875 0.296875 C 3.128906 0.296875 2.78125 0.257812 2.5 0.1875 C 2.226562 0.113281 1.992188 0.0078125 1.796875 -0.125 C 1.367188 -0.375 1.15625 -0.691406 1.15625 -1.078125 C 1.15625 -1.273438 1.207031 -1.445312 1.3125 -1.59375 C 1.53125 -1.425781 1.804688 -1.34375 2.140625 -1.34375 C 3.015625 -1.34375 3.617188 -1.71875 3.953125 -2.46875 L 3.953125 -9.6875 C 3.953125 -10.457031 3.570312 -11.039062 2.8125 -11.4375 L 2.15625 -11.765625 C 3.03125 -12.171875 3.582031 -12.613281 3.8125 -13.09375 C 3.90625 -13.300781 3.953125 -13.566406 3.953125 -13.890625 L 3.953125 -20.125 C 3.617188 -20.875 3.015625 -21.25 2.140625 -21.25 C 1.804688 -21.25 1.53125 -21.164062 1.3125 -21 C 1.207031 -21.144531 1.15625 -21.3125 1.15625 -21.5 C 1.15625 -21.695312 1.207031 -21.878906 1.3125 -22.046875 C 1.425781 -22.210938 1.585938 -22.359375 1.796875 -22.484375 C 2.242188 -22.753906 2.753906 -22.890625 3.328125 -22.890625 C 3.898438 -22.890625 4.441406 -22.734375 4.953125 -22.421875 C 5.390625 -22.734375 5.921875 -22.890625 6.546875 -22.890625 C 7.171875 -22.890625 7.726562 -22.734375 8.21875 -22.421875 C 8.675781 -22.734375 9.191406 -22.890625 9.765625 -22.890625 C 10.597656 -22.890625 11.191406 -22.609375 11.546875 -22.046875 C 11.671875 -21.867188 11.734375 -21.679688 11.734375 -21.484375 C 11.734375 -21.296875 11.671875 -21.132812 11.546875 -21 C 11.328125 -21.164062 11.054688 -21.25 10.734375 -21.25 C 9.972656 -21.25 9.46875 -20.878906 9.21875 -20.140625 L 9.21875 -12.34375 L 16.203125 -12.34375 L 16.203125 -20.140625 C 15.941406 -20.878906 15.4375 -21.25 14.6875 -21.25 C 14.351562 -21.25 14.082031 -21.164062 13.875 -21 C 13.75 -21.132812 13.6875 -21.296875 13.6875 -21.484375 C 13.6875 -21.679688 13.742188 -21.867188 13.859375 -22.046875 C 13.972656 -22.222656 14.117188 -22.378906 14.296875 -22.515625 C 14.671875 -22.765625 15.125 -22.890625 15.65625 -22.890625 C 16.226562 -22.890625 16.742188 -22.734375 17.203125 -22.421875 C 17.710938 -22.734375 18.273438 -22.890625 18.890625 -22.890625 C 19.503906 -22.890625 20.03125 -22.734375 20.46875 -22.421875 C 20.957031 -22.734375 21.414062 -22.890625 21.84375 -22.890625 C 22.28125 -22.890625 22.632812 -22.851562 22.90625 -22.78125 C 23.1875 -22.707031 23.429688 -22.609375 23.640625 -22.484375 C 24.054688 -22.222656 24.265625 -21.898438 24.265625 -21.515625 C 24.265625 -21.316406 24.210938 -21.144531 24.109375 -21 C 23.890625 -21.164062 23.613281 -21.25 23.28125 -21.25 C 22.40625 -21.25 21.800781 -20.875 21.46875 -20.125 L 21.46875 -13.890625 C 21.46875 -13.117188 21.84375 -12.519531 22.59375 -12.09375 C 22.8125 -11.976562 23.035156 -11.867188 23.265625 -11.765625 C 22.671875 -11.484375 22.269531 -11.253906 22.0625 -11.078125 C 21.664062 -10.703125 21.46875 -10.238281 21.46875 -9.6875 L 21.46875 -2.46875 C 21.800781 -1.71875 22.40625 -1.34375 23.28125 -1.34375 C 23.613281 -1.34375 23.890625 -1.425781 24.109375 -1.59375 C 24.210938 -1.445312 24.265625 -1.273438 24.265625 -1.078125 C 24.265625 -0.890625 24.207031 -0.710938 24.09375 -0.546875 C 23.976562 -0.378906 23.828125 -0.238281 23.640625 -0.125 C 23.179688 0.15625 22.660156 0.296875 22.078125 0.296875 C 21.492188 0.296875 20.957031 0.140625 20.46875 -0.171875 C 20.03125 0.140625 19.503906 0.296875 18.890625 0.296875 C 18.273438 0.296875 17.710938 0.140625 17.203125 -0.171875 C 16.742188 0.140625 16.226562 0.296875 15.65625 0.296875 C 14.820312 0.296875 14.222656 0.015625 13.859375 -0.546875 C 13.742188 -0.722656 13.6875 -0.910156 13.6875 -1.109375 C 13.6875 -1.304688 13.75 -1.46875 13.875 -1.59375 C 14.082031 -1.425781 14.351562 -1.34375 14.6875 -1.34375 C 15.4375 -1.34375 15.941406 -1.710938 16.203125 -2.453125 L 16.203125 -10.234375 L 9.21875 -10.234375 L 9.21875 -2.453125 C 9.46875 -1.710938 9.972656 -1.34375 10.734375 -1.34375 C 11.054688 -1.34375 11.328125 -1.425781 11.546875 -1.59375 C 11.671875 -1.46875 11.734375 -1.304688 11.734375 -1.109375 C 11.734375 -0.910156 11.675781 -0.722656 11.5625 -0.546875 C 11.445312 -0.367188 11.296875 -0.21875 11.109375 -0.09375 C 10.753906 0.164062 10.304688 0.296875 9.765625 0.296875 C 9.203125 0.296875 8.6875 0.144531 8.21875 -0.15625 Z M 17.421875 -14.9375 C 17.421875 -13.882812 17.421875 -12.132812 17.421875 -9.6875 C 17.421875 -7.25 17.453125 -5.8125 17.515625 -5.375 C 17.640625 -4.550781 17.894531 -4.066406 18.28125 -3.921875 L 18.28125 -5.828125 C 18.28125 -8.453125 18.300781 -9.929688 18.34375 -10.265625 C 18.382812 -10.609375 18.425781 -10.847656 18.46875 -10.984375 C 18.550781 -11.328125 18.847656 -11.585938 19.359375 -11.765625 C 18.910156 -11.910156 18.613281 -12.191406 18.46875 -12.609375 C 18.34375 -13.085938 18.28125 -15.039062 18.28125 -18.46875 C 17.894531 -18.289062 17.660156 -17.9375 17.578125 -17.40625 C 17.484375 -16.820312 17.429688 -16 17.421875 -14.9375 Z M 5.375 -3.921875 C 5.84375 -4.097656 6.109375 -4.738281 6.171875 -5.84375 C 6.222656 -6.945312 6.25 -8.472656 6.25 -10.421875 C 6.25 -12.378906 6.242188 -13.675781 6.234375 -14.3125 C 6.234375 -14.957031 6.226562 -15.476562 6.21875 -15.875 C 6.1875 -17.03125 6.078125 -17.726562 5.890625 -17.96875 C 5.710938 -18.21875 5.539062 -18.382812 5.375 -18.46875 C 5.375 -15.039062 5.316406 -13.085938 5.203125 -12.609375 C 5.066406 -12.210938 4.726562 -11.929688 4.1875 -11.765625 C 4.78125 -11.566406 5.117188 -11.316406 5.203125 -11.015625 C 5.316406 -10.546875 5.375 -8.816406 5.375 -5.828125 Z M 5.375 -3.921875 "/></g></g></g><g fill="#fffcf7" fill-opacity="1"><g transform="translate(294.136923, 101.019149)"><g><path d="M 5.171875 -2.1875 C 4.347656 -3.03125 3.679688 -4.046875 3.171875 -5.234375 C 2.671875 -6.429688 2.359375 -7.5625 2.234375 -8.625 C 2.117188 -9.6875 1.941406 -10.421875 1.703125 -10.828125 C 1.460938 -11.242188 1.117188 -11.554688 0.671875 -11.765625 C 1.535156 -12.171875 2.039062 -13 2.1875 -14.25 C 2.34375 -15.507812 2.691406 -16.6875 3.234375 -17.78125 C 3.773438 -18.875 4.460938 -19.8125 5.296875 -20.59375 C 7.066406 -22.226562 9.191406 -23.046875 11.671875 -23.046875 C 14.222656 -23.046875 16.332031 -22.285156 18 -20.765625 C 19.75 -19.191406 20.773438 -16.988281 21.078125 -14.15625 C 21.203125 -12.96875 21.703125 -12.171875 22.578125 -11.765625 C 21.722656 -11.347656 21.21875 -10.453125 21.0625 -9.078125 C 20.90625 -7.710938 20.59375 -6.429688 20.125 -5.234375 C 19.664062 -4.046875 19.046875 -3.03125 18.265625 -2.1875 C 16.640625 -0.4375 14.445312 0.4375 11.6875 0.4375 C 9.03125 0.4375 6.859375 -0.4375 5.171875 -2.1875 Z M 10 -11.765625 C 8.914062 -11.242188 8.375 -10.394531 8.375 -9.21875 L 8.375 -4.828125 C 8.375 -3.222656 9.039062 -2.195312 10.375 -1.75 C 10.757812 -1.601562 11.179688 -1.53125 11.640625 -1.53125 C 12.109375 -1.53125 12.535156 -1.597656 12.921875 -1.734375 C 13.316406 -1.878906 13.65625 -2.085938 13.9375 -2.359375 C 14.53125 -2.929688 14.828125 -3.753906 14.828125 -4.828125 L 14.828125 -9.21875 C 14.828125 -10.394531 14.296875 -11.242188 13.234375 -11.765625 C 14.296875 -12.265625 14.828125 -13.0625 14.828125 -14.15625 L 14.828125 -17.6875 C 14.828125 -18.769531 14.507812 -19.617188 13.875 -20.234375 C 13.269531 -20.796875 12.523438 -21.078125 11.640625 -21.078125 C 10.128906 -21.078125 9.125 -20.445312 8.625 -19.1875 C 8.457031 -18.757812 8.375 -18.257812 8.375 -17.6875 L 8.375 -14.15625 C 8.375 -13.039062 8.914062 -12.242188 10 -11.765625 Z M 16.1875 -18.46875 C 16.46875 -17.632812 16.609375 -16.207031 16.609375 -14.1875 C 16.609375 -13.050781 16.554688 -12.425781 16.453125 -12.3125 C 16.359375 -12.207031 16.257812 -12.117188 16.15625 -12.046875 C 15.976562 -11.929688 15.785156 -11.835938 15.578125 -11.765625 C 16.171875 -11.503906 16.484375 -11.25 16.515625 -11 C 16.609375 -10.039062 16.65625 -9.207031 16.65625 -8.5 C 16.65625 -7.789062 16.644531 -7.222656 16.625 -6.796875 C 16.613281 -6.367188 16.585938 -5.972656 16.546875 -5.609375 C 16.460938 -4.835938 16.363281 -4.273438 16.25 -3.921875 C 17.019531 -4.148438 17.445312 -5.285156 17.53125 -7.328125 C 17.582031 -8.472656 17.609375 -9.742188 17.609375 -11.140625 C 17.609375 -12.546875 17.59375 -13.597656 17.5625 -14.296875 C 17.53125 -15.003906 17.484375 -15.585938 17.421875 -16.046875 C 17.304688 -17.085938 17.0625 -17.8125 16.6875 -18.21875 C 16.582031 -18.332031 16.414062 -18.414062 16.1875 -18.46875 Z M 5.53125 -3.921875 C 5.6875 -3.972656 5.765625 -4.070312 5.765625 -4.21875 C 5.765625 -4.4375 5.660156 -4.78125 5.453125 -5.25 C 4.929688 -6.4375 4.671875 -8.609375 4.671875 -11.765625 C 4.671875 -14.078125 4.945312 -16.039062 5.5 -17.65625 C 5.5625 -17.894531 5.59375 -18.078125 5.59375 -18.203125 C 5.59375 -18.335938 5.53125 -18.425781 5.40625 -18.46875 C 4.945312 -17.882812 4.617188 -17.304688 4.421875 -16.734375 C 4.054688 -15.691406 3.765625 -14.28125 3.546875 -12.5 C 3.515625 -12.238281 3.222656 -11.992188 2.671875 -11.765625 C 3.222656 -11.523438 3.515625 -11.273438 3.546875 -11.015625 C 3.898438 -7.960938 4.351562 -5.925781 4.90625 -4.90625 C 5.09375 -4.539062 5.300781 -4.210938 5.53125 -3.921875 Z M 5.53125 -3.921875 "/></g></g></g><g fill="#fffcf7" fill-opacity="1"><g transform="translate(326.473369, 101.019149)"><g><path d="M 8.34375 -0.1875 C 7.832031 0.132812 7.257812 0.296875 6.625 0.296875 C 5.988281 0.296875 5.421875 0.140625 4.921875 -0.171875 C 4.421875 0.140625 3.953125 0.296875 3.515625 0.296875 C 3.085938 0.296875 2.734375 0.257812 2.453125 0.1875 C 2.179688 0.113281 1.945312 0.0078125 1.75 -0.125 C 1.320312 -0.375 1.109375 -0.691406 1.109375 -1.078125 C 1.109375 -1.273438 1.160156 -1.445312 1.265625 -1.59375 C 1.484375 -1.425781 1.757812 -1.34375 2.09375 -1.34375 C 2.96875 -1.34375 3.578125 -1.71875 3.921875 -2.46875 L 3.921875 -9.6875 C 3.921875 -10.144531 3.828125 -10.476562 3.640625 -10.6875 C 3.335938 -11.050781 2.828125 -11.410156 2.109375 -11.765625 C 2.773438 -12.078125 3.207031 -12.347656 3.40625 -12.578125 C 3.75 -12.960938 3.921875 -13.398438 3.921875 -13.890625 L 3.921875 -20.125 C 3.578125 -20.875 2.96875 -21.25 2.09375 -21.25 C 1.757812 -21.25 1.484375 -21.164062 1.265625 -21 C 1.160156 -21.144531 1.109375 -21.3125 1.109375 -21.5 C 1.109375 -21.695312 1.164062 -21.878906 1.28125 -22.046875 C 1.394531 -22.210938 1.550781 -22.359375 1.75 -22.484375 C 2.195312 -22.753906 2.710938 -22.890625 3.296875 -22.890625 C 3.890625 -22.890625 4.429688 -22.726562 4.921875 -22.40625 C 5.429688 -22.726562 6 -22.890625 6.625 -22.890625 C 7.25 -22.890625 7.8125 -22.734375 8.3125 -22.421875 C 9.289062 -22.835938 10.390625 -23.046875 11.609375 -23.046875 C 12.835938 -23.046875 13.898438 -22.898438 14.796875 -22.609375 C 15.691406 -22.328125 16.5 -21.929688 17.21875 -21.421875 C 18.71875 -20.359375 19.707031 -18.953125 20.1875 -17.203125 C 20.382812 -16.523438 20.851562 -15.96875 21.59375 -15.53125 C 20.832031 -15.113281 20.320312 -14.472656 20.0625 -13.609375 C 19.8125 -12.753906 19.390625 -11.957031 18.796875 -11.21875 C 18.203125 -10.488281 17.519531 -9.878906 16.75 -9.390625 C 15.1875 -8.390625 13.519531 -7.890625 11.75 -7.890625 C 10.988281 -7.890625 10.1875 -7.988281 9.34375 -8.1875 L 9.34375 -2.546875 C 9.613281 -1.972656 10.160156 -1.597656 10.984375 -1.421875 C 11.203125 -1.367188 11.441406 -1.34375 11.703125 -1.34375 C 11.972656 -1.34375 12.21875 -1.425781 12.4375 -1.59375 C 12.539062 -1.445312 12.59375 -1.273438 12.59375 -1.078125 C 12.59375 -0.890625 12.519531 -0.710938 12.375 -0.546875 C 12.238281 -0.378906 12.050781 -0.238281 11.8125 -0.125 C 11.289062 0.15625 10.71875 0.296875 10.09375 0.296875 C 9.476562 0.296875 8.894531 0.132812 8.34375 -0.1875 Z M 9.34375 -12.03125 C 9.34375 -11.363281 9.59375 -10.828125 10.09375 -10.421875 C 10.539062 -10.046875 11.117188 -9.859375 11.828125 -9.859375 C 12.910156 -9.859375 13.695312 -10.273438 14.1875 -11.109375 C 14.351562 -11.390625 14.4375 -11.738281 14.4375 -12.15625 L 14.4375 -18.828125 C 14.4375 -19.535156 14.164062 -20.09375 13.625 -20.5 C 13.125 -20.875 12.628906 -21.0625 12.140625 -21.0625 C 11.660156 -21.0625 11.265625 -21.015625 10.953125 -20.921875 C 10.640625 -20.828125 10.363281 -20.6875 10.125 -20.5 C 9.601562 -20.082031 9.34375 -19.503906 9.34375 -18.765625 Z M 15.390625 -10.515625 C 15.617188 -10.554688 15.851562 -10.832031 16.09375 -11.34375 C 16.332031 -11.851562 16.515625 -12.453125 16.640625 -13.140625 C 16.765625 -13.835938 16.921875 -14.351562 17.109375 -14.6875 C 17.296875 -15.019531 17.59375 -15.253906 18 -15.390625 C 17.320312 -15.617188 16.894531 -16.222656 16.71875 -17.203125 C 16.539062 -18.179688 16.332031 -18.898438 16.09375 -19.359375 C 15.851562 -19.828125 15.617188 -20.082031 15.390625 -20.125 C 15.753906 -19.300781 15.9375 -17.722656 15.9375 -15.390625 C 15.9375 -13.835938 15.859375 -12.664062 15.703125 -11.875 C 15.546875 -11.082031 15.441406 -10.628906 15.390625 -10.515625 Z M 5.328125 -3.921875 C 5.828125 -4.097656 6.097656 -4.738281 6.140625 -5.84375 C 6.203125 -6.945312 6.234375 -8.472656 6.234375 -10.421875 C 6.234375 -12.378906 6.226562 -13.675781 6.21875 -14.3125 C 6.21875 -14.957031 6.210938 -15.476562 6.203125 -15.875 C 6.171875 -17.039062 6.054688 -17.742188 5.859375 -17.984375 C 5.671875 -18.222656 5.492188 -18.382812 5.328125 -18.46875 C 5.328125 -15.039062 5.269531 -13.085938 5.15625 -12.609375 C 5.019531 -12.210938 4.6875 -11.929688 4.15625 -11.765625 C 4.738281 -11.566406 5.070312 -11.316406 5.15625 -11.015625 C 5.269531 -10.546875 5.328125 -8.816406 5.328125 -5.828125 Z M 5.328125 -3.921875 "/></g></g></g></svg>